<svg width="500" height="500" viewBox="0 0 500 500" fill="none" xmlns="http://www.w3.org/2000/svg">
<path d="M0 12C0 5.37258 5.37258 0 12 0H488C494.627 0 500 5.37258 500 12V488C500 494.627 494.627 500 488 500H12C5.37258 500 0 494.627 0 488V12Z" fill="black"/>
<path d="M274.1 360L273.8 220.8L204.8 336H187.4L118.4 222.6V360H81.2V150H113.3L196.7 289.2L278.6 150H310.7L311 360H274.1ZM313.723 182.7V246.6H415.123V279.6H313.723V360H274.723V150H428.023V182.7H313.723Z" fill="white"/>
<path d="M271 163L281 146H271V163Z" fill="black"/>
</svg>
